<svg xmlns="http://www.w3.org/2000/svg" xmlns:xlink="http://www.w3.org/1999/xlink" id="Capa_1" x="0" y="0" version="1.1" viewBox="0 0 512 512" xml:space="preserve" style="enable-background:new 0 0 512 512"><path style="fill:#e1549b" d="M256,22.145v157.344l-80.272-91.28c0,0-30.544-39.072-0.712-68.552	C202.176-7.175,240.016,5.097,256,22.145z"/><path style="fill:#dd1a72" d="M256,22.145v157.344l80.272-91.28c0,0,30.544-39.072,0.712-68.552	C309.824-7.175,271.984,5.097,256,22.145z"/><path style="fill:#ffeaba" d="M163.104,508.001C73.16,508.001,0,434.833,0,344.897c0-89.928,73.168-163.096,163.104-163.096	c89.928,0,163.096,73.168,163.096,163.096C326.192,434.833,253.032,508.001,163.104,508.001z M163.104,213.809	C90.816,213.809,32,272.609,32,344.897s58.816,131.104,131.104,131.104S294.2,417.185,294.2,344.897	S235.392,213.809,163.104,213.809z"/><path style="fill:#ffc590" d="M348.896,508.001c-89.928,0-163.096-73.168-163.096-163.104c0-89.928,73.168-163.096,163.096-163.096	C438.832,181.809,512,254.969,512,344.897C512,434.833,438.832,508.001,348.896,508.001z M348.896,213.809	c-72.288,0-131.096,58.808-131.096,131.096s58.808,131.096,131.096,131.096S480,417.185,480,344.897	S421.184,213.809,348.896,213.809z"/></svg>